<svg width="40" height="40" viewBox="0 0 40 40" fill="none" xmlns="http://www.w3.org/2000/svg">
<rect width="40" height="40" fill="#F6941E"/>
<rect width="30" height="31.251" rx="15" transform="matrix(1 0 0 -1 5 35)" fill="#F6941E"/>
<path d="M11.8775 11.6179C11.9446 11.987 12.3136 12.9599 12.6155 13.7986C13.5213 16.0798 13.4542 22.9908 12.5149 25.7082C12.1123 26.8153 11.8439 27.7547 11.8775 27.7882C12.0787 27.9895 13.3536 25.9095 14.0916 24.1985C14.7626 22.6889 14.9304 21.8166 14.8968 19.5018C14.8968 17.0192 14.7626 16.3482 13.8568 14.4695C13.2865 13.2618 12.582 11.987 12.2465 11.6179L11.7097 10.947L11.8775 11.6179Z" fill="white"/>
<path d="M17.0793 9.49306C18.6897 13.3176 18.9916 14.8608 18.9916 19.1885C19.0251 23.7175 18.4548 27.0388 17.3477 28.7162C17.0793 29.1524 16.9451 29.5885 17.0458 29.7227C17.6497 30.3265 20.4677 24.6904 21.0045 21.7717C21.3064 20.1614 21.3064 19.1214 21.0045 17.2763C20.5348 14.693 18.6561 10.466 17.5155 9.42596C16.811 8.82209 16.811 8.82209 17.0793 9.49306Z" fill="white"/>
<path d="M23.2439 7.22235C23.2439 7.323 23.6129 8.2288 24.0491 9.2017C25.2903 11.9862 25.7265 14.6365 25.7265 19.4004C25.7265 24.2984 25.2568 27.2842 24.0826 29.8674C23.6465 30.8403 23.4116 31.6455 23.5794 31.6455C24.0826 31.6455 25.4916 29.5655 26.4645 27.4855C29.0813 21.7823 28.88 16.6159 25.8942 10.812C24.7536 8.63138 23.2439 6.58493 23.2439 7.22235Z" fill="white"/>
</svg>
