<svg width="450" height="450" viewBox="0 0 450 450" fill="none" xmlns="http://www.w3.org/2000/svg">
<path d="M79 33H152H225H305.036L371 128.867V224.735V320.602V416.47H79V33Z" fill="#FF553E"/>
<path d="M325.625 209.062V194.688H268.125V295.312H282.5V252.188H318.438V237.812H282.5V209.062H325.625ZM167.5 194.688H124.375V295.312H138.75V259.375H167.5C171.312 259.375 174.969 257.86 177.665 255.165C180.36 252.469 181.875 248.812 181.875 245V209.062C181.875 205.25 180.36 201.594 177.665 198.898C174.969 196.202 171.312 194.688 167.5 194.688ZM167.5 245H138.75V209.062H167.5V245ZM225 295.312H196.25V194.688H225C232.625 194.688 239.938 197.717 245.329 203.108C250.721 208.5 253.75 215.813 253.75 223.438V266.562C253.75 274.187 250.721 281.5 245.329 286.892C239.938 292.283 232.625 295.312 225 295.312ZM210.625 280.938H225C228.812 280.938 232.469 279.423 235.165 276.727C237.86 274.031 239.375 270.375 239.375 266.562V223.438C239.375 219.625 237.86 215.969 235.165 213.273C232.469 210.577 228.812 209.062 225 209.062H210.625V280.938Z" fill="white"/>
</svg>
