<svg width="450" height="450" viewBox="0 0 450 450" fill="none" xmlns="http://www.w3.org/2000/svg">
<path d="M79 33H152H225H305.036L371 128.867V224.735V320.602V416.47H79V33Z" fill="#0191FC"/>
<path d="M284.586 164.147L286.189 198.117H282.129C281.346 192.135 280.278 187.862 278.925 185.298C276.717 181.167 273.762 178.141 270.058 176.218C266.426 174.224 261.619 173.227 255.637 173.227H235.234V283.896C235.234 292.798 236.195 298.353 238.118 300.561C240.824 303.552 244.99 305.048 250.616 305.048H255.637V309H194.213V305.048H199.341C205.465 305.048 209.81 303.196 212.373 299.493C213.94 297.214 214.724 292.015 214.724 283.896V173.227H197.311C190.546 173.227 185.739 173.725 182.89 174.722C179.187 176.075 176.018 178.675 173.383 182.52C170.748 186.366 169.181 191.565 168.682 198.117H164.623L166.332 164.147H284.586Z" fill="white"/>
</svg>
