<svg width="450" height="450" viewBox="0 0 450 450" fill="none" xmlns="http://www.w3.org/2000/svg">
<path d="M79 33H152H225H305.036L371 128.867V224.735V320.602V416.47H79V33Z" fill="#363957"/>
<path d="M185.097 207.455V215.977H154.273V207.455H185.097ZM162.724 262V201.134C162.724 197.724 163.47 194.895 164.962 192.646C166.453 190.374 168.43 188.681 170.892 187.568C173.354 186.432 176.029 185.864 178.918 185.864C181.048 185.864 182.871 186.041 184.386 186.396C185.902 186.728 187.026 187.036 187.76 187.32L185.274 195.913C184.777 195.771 184.138 195.606 183.357 195.416C182.575 195.203 181.628 195.097 180.516 195.097C177.935 195.097 176.089 195.736 174.976 197.014C173.887 198.293 173.342 200.139 173.342 202.554V262H162.724ZM196.052 262V207.455H206.67V262H196.052ZM201.414 199.038C199.567 199.038 197.981 198.423 196.656 197.192C195.353 195.937 194.702 194.446 194.702 192.717C194.702 190.965 195.353 189.474 196.656 188.243C197.981 186.988 199.567 186.361 201.414 186.361C203.261 186.361 204.835 186.988 206.137 188.243C207.463 189.474 208.126 190.965 208.126 192.717C208.126 194.446 207.463 195.937 206.137 197.192C204.835 198.423 203.261 199.038 201.414 199.038ZM231.572 189.273V262H220.954V189.273H231.572ZM269.365 263.101C263.991 263.101 259.363 261.953 255.48 259.656C251.621 257.336 248.638 254.081 246.531 249.891C244.448 245.677 243.406 240.741 243.406 235.082C243.406 229.495 244.448 224.571 246.531 220.31C248.638 216.048 251.574 212.722 255.338 210.331C259.126 207.94 263.553 206.744 268.619 206.744C271.697 206.744 274.68 207.253 277.568 208.271C280.456 209.289 283.049 210.887 285.345 213.065C287.642 215.243 289.453 218.072 290.778 221.553C292.104 225.009 292.767 229.211 292.767 234.159V237.923H249.408V229.969H282.362C282.362 227.175 281.794 224.701 280.658 222.547C279.521 220.369 277.923 218.652 275.864 217.398C273.828 216.143 271.437 215.516 268.69 215.516C265.707 215.516 263.103 216.25 260.878 217.717C258.676 219.161 256.972 221.055 255.764 223.399C254.58 225.719 253.989 228.241 253.989 230.963V237.178C253.989 240.823 254.628 243.925 255.906 246.482C257.208 249.038 259.019 250.991 261.339 252.341C263.66 253.667 266.37 254.33 269.472 254.33C271.484 254.33 273.319 254.045 274.976 253.477C276.633 252.885 278.065 252.009 279.273 250.849C280.48 249.689 281.403 248.257 282.043 246.553L292.092 248.364C291.287 251.323 289.843 253.915 287.76 256.141C285.7 258.342 283.108 260.059 279.983 261.29C276.882 262.497 273.342 263.101 269.365 263.101Z" fill="white"/>
</svg>
