<svg width="389" height="100" viewBox="0 0 389 100" fill="none" xmlns="http://www.w3.org/2000/svg">
<path d="M165.05 73.6096V18.7996H158.41V17.0596H200.19V35.8796H198.57C198.57 30.3596 197.667 26.2696 195.86 23.6096C193.687 20.4096 190.147 18.8062 185.24 18.7996H174V73.6096H181.42V75.3496H158.42V73.6096H165.05Z" fill="#F6941E"/>
<path d="M203.45 17.0596H226.45V18.7996H219.27L236.27 56.3296L247.06 27.8296C247.771 26.149 248.171 24.3531 248.24 22.5296C248.24 20.0496 246.31 18.7996 242.45 18.7996V17.0596H257.28V18.7996C255.16 18.7996 253.63 19.2296 252.68 20.0896C251.443 21.4055 250.508 22.9753 249.94 24.6896L235.34 62.6896C231.84 71.8096 227.507 76.3696 222.34 76.3696C219.525 76.3901 216.792 75.4202 214.62 73.6296C213.461 72.7446 212.523 71.6033 211.88 70.2952C211.236 68.987 210.904 67.5475 210.91 66.0896C210.91 62.4896 212.64 60.6996 216.09 60.6996C218.61 60.6996 219.87 62.1996 219.87 65.1996C219.809 66.4395 219.288 67.6122 218.41 68.4896C217.591 69.2428 217.07 70.2646 216.94 71.3696C217.016 71.8055 217.178 72.2219 217.417 72.5945C217.655 72.9671 217.966 73.2884 218.33 73.5396C219.309 74.3963 220.58 74.8438 221.88 74.7896C225.38 74.7896 228.493 72.2429 231.22 67.1496L209.4 18.7996H203.45V17.0596Z" fill="#F6941E"/>
<path d="M280.74 73.6096V18.7996C268.54 18.7996 262.44 24.3562 262.44 35.4696H260.81V17.0596H309.81V35.4696H308.18C308.18 24.3629 302.107 18.8062 289.96 18.7996V73.6096H297.22V75.3496H273.48V73.6096H280.74Z" fill="#F6941E"/>
<path d="M369.82 100C381.27 87.11 389 66.54 389 50.77C389 40 385.87 20.55 369.82 0L367.77 1C377.28 17.33 378.71 31.44 378.71 50.77C378.71 54.66 378.92 83.23 367.98 98.77L369.82 100Z" fill="#F6941E"/>
<path d="M343.82 92.1896C353.48 81.3096 360 63.9996 360 50.6496C360 41.5596 357.32 25.1496 343.78 7.80957L342.06 8.65957C350.06 22.4396 351.29 34.3396 351.29 50.6596C351.29 53.9396 351.46 78.0396 342.23 91.1696L343.82 92.1896Z" fill="#F6941E"/>
<path d="M321.15 84.3699C329.02 75.5199 334.36 61.3699 334.36 50.5299C334.36 43.1199 332.18 29.7499 321.15 15.6299L319.74 16.3099C326.28 27.5399 327.26 37.2399 327.26 50.5299C327.26 53.1999 327.4 72.8399 319.88 83.5299L321.15 84.3699Z" fill="#F6941E"/>
<path d="M42.36 56H43.9L43.13 75.4H41.59C41.6367 73.0334 40.6067 71.8467 38.5 71.84C37.9333 71.84 36.2067 72.6 33.32 74.12C30.4687 75.6324 27.2875 76.4157 24.06 76.4C19.4366 76.3902 14.9593 74.7788 11.39 71.84C7.63685 68.8754 4.74095 64.9647 3.00001 60.51C1.66668 57.1767 1.00001 52.7267 1.00001 47.16C0.906563 42.4519 1.64106 37.764 3.17001 33.31C4.87677 28.389 7.93735 24.0495 12 20.79C15.9128 17.7141 20.7635 16.076 25.74 16.15C28.105 16.1083 30.4514 16.5755 32.62 17.52C34.0133 18.2558 35.5335 18.7207 37.1 18.89C37.9375 18.9668 38.7735 18.7286 39.4448 18.2219C40.116 17.7152 40.5743 16.9765 40.73 16.15H42.35V35.05H41.58C40.44 23.4967 35.34 17.7234 26.28 17.73C24.4659 17.7372 22.6712 18.1042 21 18.81C14.46 21.4767 11.1933 28.6834 11.2 40.43V55C11.0947 58.9777 11.8841 62.9283 13.51 66.56C14.2611 68.2972 15.3724 69.8552 16.7704 71.1309C18.1685 72.4065 19.8215 73.3708 21.62 73.96C23.0617 74.4658 24.5728 74.7458 26.1 74.79C30.58 74.79 34.3133 72.79 37.3 68.79C39.9499 64.9737 41.6817 60.5964 42.36 56V56Z" fill="black"/>
<path d="M64.2 18.7996V73.6096H70.2V75.3496H48.6V73.6096H55.24V18.7996H48.6V17.0596H105.67V18.7996H99V73.6096H105.65V75.3496H84V73.6096H89.94V18.7996H64.2Z" fill="black"/>
<path d="M141 11.0898H141.85C141.85 16.0098 140.95 19.7132 139.15 22.1998C137.19 24.7998 133.997 26.4032 129.57 27.0098C124.477 27.6765 120.77 28.5332 118.45 29.5798C114.85 31.2587 112 34.2122 110.45 37.8698C109.215 40.7465 108.634 43.8615 108.75 46.9898V48.3998H110.07C113.77 40.4398 118.943 36.4598 125.59 36.4598C131.25 36.4598 135.717 38.2565 138.99 41.8498C142.263 45.4432 143.897 50.2798 143.89 56.3598C143.89 62.2198 142.203 67.0165 138.83 70.7498C137.166 72.5938 135.119 74.0507 132.831 75.0182C130.544 75.9857 128.072 76.4402 125.59 76.3498C123.637 76.304 121.705 75.9392 119.87 75.2698C115.203 73.6698 111.73 69.5798 109.45 62.9998C108.091 58.5405 107.466 53.8898 107.6 49.2298C107.6 36.1898 109.837 27.4032 114.31 22.8698C116.397 20.8468 119.107 19.5887 122 19.2998C127.66 18.5332 130.903 18.0365 131.73 17.8098C136.31 16.8698 139.113 15.5965 140.14 13.9898C140.706 13.129 141.005 12.1201 141 11.0898V11.0898ZM116.68 50.0898V61.0898C116.68 65.5598 117.14 68.7498 118.07 70.6798C119.403 73.4398 121.963 74.8198 125.75 74.8198C129.417 74.8198 131.95 73.2498 133.35 70.1098C134.383 67.8965 134.9 64.6132 134.9 60.2598V49.9998C135.041 47.0682 134.314 44.1601 132.81 41.6398C131.764 40.0938 130.221 38.9516 128.437 38.4024C126.653 37.8532 124.735 37.9299 123 38.6198C118.807 40.2065 116.71 43.9998 116.71 49.9998L116.68 50.0898Z" fill="black"/>
</svg>
