<svg width="500" height="200" viewBox="0 0 500 200" fill="none" xmlns="http://www.w3.org/2000/svg">
<path d="M220.05 123.61V68.7996H213.41V67.0596H255.19V85.8796H253.57C253.57 80.3596 252.667 76.2696 250.86 73.6096C248.687 70.4096 245.147 68.8062 240.24 68.7996H229V123.61H236.42V125.35H213.42V123.61H220.05Z" fill="white"/>
<path d="M258.45 67.0596H281.45V68.7996H274.27L291.27 106.33L302.06 77.8296C302.771 76.149 303.171 74.3531 303.24 72.5296C303.24 70.0496 301.31 68.7996 297.45 68.7996V67.0596H312.28V68.7996C310.16 68.7996 308.63 69.2296 307.68 70.0896C306.443 71.4055 305.508 72.9753 304.94 74.6896L290.34 112.69C286.84 121.81 282.507 126.37 277.34 126.37C274.525 126.39 271.792 125.42 269.62 123.63C268.461 122.745 267.523 121.603 266.88 120.295C266.236 118.987 265.904 117.548 265.91 116.09C265.91 112.49 267.64 110.7 271.09 110.7C273.61 110.7 274.87 112.2 274.87 115.2C274.809 116.439 274.288 117.612 273.41 118.49C272.591 119.243 272.07 120.265 271.94 121.37C272.016 121.805 272.178 122.222 272.417 122.594C272.655 122.967 272.966 123.288 273.33 123.54C274.309 124.396 275.58 124.844 276.88 124.79C280.38 124.79 283.493 122.243 286.22 117.15L264.4 68.7996H258.45V67.0596Z" fill="white"/>
<path d="M335.74 123.61V68.7996C323.54 68.7996 317.44 74.3562 317.44 85.4696H315.81V67.0596H364.81V85.4696H363.18C363.18 74.3629 357.107 68.8062 344.96 68.7996V123.61H352.22V125.35H328.48V123.61H335.74Z" fill="white"/>
<path d="M424.82 150C436.27 137.11 444 116.54 444 100.77C444 90 440.87 70.55 424.82 50L422.77 51C432.28 67.33 433.71 81.44 433.71 100.77C433.71 104.66 433.92 133.23 422.98 148.77L424.82 150Z" fill="white"/>
<path d="M398.82 142.19C408.48 131.31 415 114 415 100.65C415 91.5596 412.32 75.1496 398.78 57.8096L397.06 58.6596C405.06 72.4396 406.29 84.3396 406.29 100.66C406.29 103.94 406.46 128.04 397.23 141.17L398.82 142.19Z" fill="white"/>
<path d="M376.15 134.37C384.02 125.52 389.36 111.37 389.36 100.53C389.36 93.1199 387.18 79.7499 376.15 65.6299L374.74 66.3099C381.28 77.5399 382.26 87.2399 382.26 100.53C382.26 103.2 382.4 122.84 374.88 133.53L376.15 134.37Z" fill="white"/>
<path d="M97.36 106H98.9L98.13 125.4H96.59C96.6367 123.033 95.6067 121.847 93.5 121.84C92.9333 121.84 91.2067 122.6 88.32 124.12C85.4687 125.632 82.2875 126.416 79.06 126.4C74.4366 126.39 69.9593 124.779 66.39 121.84C62.6369 118.875 59.7409 114.965 58 110.51C56.6667 107.177 56 102.727 56 97.16C55.9066 92.4519 56.6411 87.764 58.17 83.31C59.8768 78.389 62.9374 74.0495 67 70.79C70.9128 67.7141 75.7635 66.076 80.74 66.15C83.105 66.1083 85.4514 66.5755 87.62 67.52C89.0133 68.2558 90.5335 68.7207 92.1 68.89C92.9375 68.9668 93.7735 68.7286 94.4448 68.2219C95.116 67.7152 95.5743 66.9765 95.73 66.15H97.35V85.05H96.58C95.44 73.4967 90.34 67.7234 81.28 67.73C79.4659 67.7372 77.6712 68.1042 76 68.81C69.46 71.4767 66.1933 78.6834 66.2 90.43V105C66.0947 108.978 66.8841 112.928 68.51 116.56C69.2611 118.297 70.3724 119.855 71.7704 121.131C73.1685 122.407 74.8215 123.371 76.62 123.96C78.0617 124.466 79.5728 124.746 81.1 124.79C85.58 124.79 89.3133 122.79 92.3 118.79C94.9499 114.974 96.6817 110.596 97.36 106V106Z" fill="white"/>
<path d="M119.2 68.7996V123.61H125.2V125.35H103.6V123.61H110.24V68.7996H103.6V67.0596H160.67V68.7996H154V123.61H160.65V125.35H139V123.61H144.94V68.7996H119.2Z" fill="white"/>
<path d="M196 61.0898H196.85C196.85 66.0098 195.95 69.7132 194.15 72.1998C192.19 74.7998 188.997 76.4032 184.57 77.0098C179.477 77.6765 175.77 78.5332 173.45 79.5798C169.85 81.2587 167 84.2122 165.45 87.8698C164.215 90.7465 163.634 93.8615 163.75 96.9898V98.3998H165.07C168.77 90.4398 173.943 86.4598 180.59 86.4598C186.25 86.4598 190.717 88.2565 193.99 91.8498C197.263 95.4432 198.897 100.28 198.89 106.36C198.89 112.22 197.203 117.017 193.83 120.75C192.166 122.594 190.118 124.051 187.831 125.018C185.544 125.986 183.072 126.44 180.59 126.35C178.637 126.304 176.705 125.939 174.87 125.27C170.203 123.67 166.73 119.58 164.45 113C163.091 108.54 162.466 103.89 162.6 99.2298C162.6 86.1898 164.837 77.4032 169.31 72.8698C171.397 70.8468 174.107 69.5887 177 69.2998C182.66 68.5332 185.903 68.0365 186.73 67.8098C191.31 66.8698 194.113 65.5965 195.14 63.9898C195.706 63.129 196.005 62.1201 196 61.0898V61.0898ZM171.68 100.09V111.09C171.68 115.56 172.14 118.75 173.07 120.68C174.403 123.44 176.963 124.82 180.75 124.82C184.417 124.82 186.95 123.25 188.35 120.11C189.383 117.897 189.9 114.613 189.9 110.26V99.9998C190.041 97.0682 189.314 94.1601 187.81 91.6398C186.764 90.0938 185.221 88.9516 183.437 88.4024C181.653 87.8532 179.735 87.9299 178 88.6198C173.807 90.2065 171.71 93.9998 171.71 99.9998L171.68 100.09Z" fill="white"/>
</svg>
