<svg width="450" height="450" viewBox="0 0 450 450" fill="none" xmlns="http://www.w3.org/2000/svg">
<path d="M79 33H152H225H305.036L371 128.867V224.735V320.602V416.47H79V33Z" fill="#F6941E"/>
<path d="M148 106.328H172.5V130.771H148V106.328ZM148 57.4428H172.5V81.8856H148V57.4428ZM148 178.893V240H197V178.893H172.5V155.214H148V178.893ZM166.375 197.989V197.225H178.625V221.668H166.375V197.989ZM172.5 33H197V57.4428H172.5V33ZM172.5 130.771H197V155.214H172.5V130.771ZM172.5 81.8856H197V106.328H172.5V81.8856Z" fill="white"/>
</svg>
